<svg xmlns="http://www.w3.org/2000/svg" viewBox="0 0 220.68 87.86"><defs><style>.a{fill:#000000}</style></defs><title>turku-logo-outline-blue</title><path class="a" d="M217 62.63q-3.72 3.24-10.29 3.24t-10.3-3.21q-3.65-3.21-3.65-9.91V32.37h7.21v20.38a14.23 14.23 0 0 0 .23 2.61 5.2 5.2 0 0 0 1 2.27 5.29 5.29 0 0 0 2 1.61 8.4 8.4 0 0 0 3.51.62q3.85 0 5.33-1.72t1.47-5.39V32.37h7.2v20.38q0 6.64-3.71 9.88m-49.62-30.26V46l12.8-13.58h9l-12.8 12.94 14 19.83h-9l-9.87-14.79-4.13 4.18v10.56h-7.21V32.37zm-24.83 14.82a5.44 5.44 0 0 0 3.71-1.1 4.57 4.57 0 0 0 1.24-3.58 4.37 4.37 0 0 0-1.24-3.51 5.55 5.55 0 0 0-3.71-1h-7.9v9.22zm2.57-14.82a10.48 10.48 0 0 1 4 .71 9.18 9.18 0 0 1 3 2A8.33 8.33 0 0 1 154 37.9a9 9 0 0 1 .67 3.51 9.85 9.85 0 0 1-1.22 5 7.59 7.59 0 0 1-4 3.21v.1a5.5 5.5 0 0 1 2.21 1.12 6.35 6.35 0 0 1 1.42 1.79 8.37 8.37 0 0 1 .8 2.27 21.14 21.14 0 0 1 .35 2.48c0 .52.06 1.13.09 1.84s.08 1.42.16 2.15a13.17 13.17 0 0 0 .37 2.09 4.8 4.8 0 0 0 .75 1.68h-7.2a12.57 12.57 0 0 1-.74-3.72c-.09-1.44-.23-2.81-.41-4.13a6.56 6.56 0 0 0-1.56-3.76 5.36 5.36 0 0 0-3.9-1.2h-7.21v12.81h-7.21V32.37zm-27.06 30.26q-3.72 3.24-10.28 3.24t-10.3-3.21q-3.66-3.21-3.65-9.91V32.37H101v20.38a15.17 15.17 0 0 0 .23 2.61 5.13 5.13 0 0 0 3 3.88 8.33 8.33 0 0 0 3.51.62q3.85 0 5.32-1.72t1.47-5.39V32.37h7.21v20.38q0 6.64-3.72 9.88M63.35 38.42v-6.05H90.2v6.05h-9.82v26.72h-7.21V38.42zM51.56 73.64a9.42 9.42 0 0 1-9.42 9.41H34a7.24 7.24 0 0 0-5.41 2.24 7.22 7.22 0 0 0-5.41-2.24H15a9.42 9.42 0 0 1-9.41-9.41V28.39a.68.68 0 0 1 .68-.68h44.61a.68.68 0 0 1 .68.68zm-.68-48.15H6.29a2.89 2.89 0 0 0-2.9 2.89v45.26A11.63 11.63 0 0 0 15 85.27h8.15a5.62 5.62 0 0 1 2.9.78 5.72 5.72 0 0 1 1.55 1.35 1.16 1.16 0 0 0 1 .46 1.19 1.19 0 0 0 1-.46 5.63 5.63 0 0 1 4.4-2.13h8.15a11.63 11.63 0 0 0 11.62-11.63V28.39a2.89 2.89 0 0 0-2.89-2.9m-2.5 30.14a2.14 2.14 0 0 0 0-2.31 1.47 1.47 0 0 0-1.78-.55 3.1 3.1 0 0 0-1.74 1.63 11.4 11.4 0 0 0-.61 1.72c-.1.42-.22 1-.22 1h.13l.13.05a6.28 6.28 0 0 1 .71-1.6c.3-.48.9-.88 1.44-.39a1.26 1.26 0 0 1 .24 1.48c-.1.17-.28.5-.43.73s-.43.85 0 1.26a.88.88 0 0 0 1.07.24.77.77 0 0 0 .44-.45s-.53.33-.86-.06c-.13-.15-.28-.54.29-1.22.18-.23 1-1.1 1.28-1.53m-2-4.47a1.59 1.59 0 0 0-.74.13 1.51 1.51 0 0 0-.53.35 8.34 8.34 0 0 1-.06 1 8.64 8.64 0 0 1-.23 1 6.33 6.33 0 0 1 .65-.77 2.63 2.63 0 0 1 .66-.42s0-.37.1-.68.15-.58.15-.58m-2.2 3.43a8.59 8.59 0 0 0 .25-3.93 4.86 4.86 0 0 0-.8-1.59 4.92 4.92 0 0 0-.79 1.59 8.59 8.59 0 0 0 .25 3.93c.11.49.54 2.52.54 2.52s.44-2 .55-2.52M44 69.39s-.08.21-1.14.48-1.52-.93-1.61-1.2c-.42-1.2-1.23-1.33-1.92-1.57s-2.74-.81-3.1-.91c-1.07-.31-1-.62-.87-.79s1 0 1.48.21a4.26 4.26 0 0 0 1.75.3c.78-.1.89-1 .68-1.62s-5.18-14.37-5.18-14.37h1.39s.52-2.08.85-2.94a7.22 7.22 0 0 1 1.9-3.21c1.29-.83 1.67 0 1.75.24a1.13 1.13 0 0 1-.23 1.22 1.53 1.53 0 0 0 .45.1 1.26 1.26 0 0 0 1-.47 1.43 1.43 0 0 0 .07-1.7 1.92 1.92 0 0 0 1.34-1.45c.49-1.6-1.22-2.77-1.22-2.77s.07.12-.06.89-1.46 1.11-2.1 1.27A6.5 6.5 0 0 0 36 43.29a10.76 10.76 0 0 0-1.39 2.92H22.55a10.62 10.62 0 0 0-1.38-2.92A6.5 6.5 0 0 0 18 41.1c-.64-.16-2-.5-2.1-1.27s-.06-.89-.06-.89-1.71 1.17-1.22 2.77a1.92 1.92 0 0 0 1.34 1.45 1.43 1.43 0 0 0 .07 1.7 1.26 1.26 0 0 0 1 .47 1.53 1.53 0 0 0 .45-.1A1.13 1.13 0 0 1 17.2 44c.07-.23.46-1.07 1.75-.24a7.22 7.22 0 0 1 1.9 3.24c.33.86.84 2.94.84 2.94h1.4s-5 13.88-5.19 14.37-.09 1.52.69 1.62a4.26 4.26 0 0 0 1.75-.3c.51-.17 1.29-.52 1.48-.21s.2.48-.88.79c-.35.1-2.41.66-3.09.91s-1.5.37-1.92 1.57c-.1.27-.47 1.48-1.61 1.2s-1.14-.48-1.14-.48a4.75 4.75 0 0 0 1.64 2.14A2.46 2.46 0 0 0 17.9 71a1.56 1.56 0 0 0 1.5.33 1.71 1.71 0 0 0 1-.62 2.43 2.43 0 0 0 .2-.34s-1.05 0-1.25-.5c-.11-.28-.1-.68.92-1.33.32-.21 1.88-1.08 2.52-1.51s1.55-1.12 1.13-2a2 2 0 0 0-1-.91l2.58-9.81 3.14 5.16 3.14-5.16 2.58 9.81a2 2 0 0 0-1 .91c-.42.83.47 1.5 1.13 2s2.2 1.3 2.52 1.51c1 .65 1 1.05.92 1.33-.21.52-1.25.5-1.25.5a2.43 2.43 0 0 0 .2.34 1.72 1.72 0 0 0 .94.62 1.59 1.59 0 0 0 1.45-.33 2.46 2.46 0 0 0 3.08.58A4.75 4.75 0 0 0 44 69.39m-12.36-19.9l-3.05 5.34-3-5.34h6.11zM33.36 36a2.14 2.14 0 0 0 0-2.31 1.47 1.47 0 0 0-1.78-.55 3.1 3.1 0 0 0-1.74 1.63 11.4 11.4 0 0 0-.61 1.72c-.1.42-.22 1-.22 1h.26a6.28 6.28 0 0 1 .66-1.63c.3-.48.9-.88 1.44-.39a1.26 1.26 0 0 1 .24 1.53c-.1.17-.28.5-.43.73s-.43.85 0 1.25a.87.87 0 0 0 1.07.25.8.8 0 0 0 .44-.45s-.53.33-.86-.06c-.13-.15-.28-.54.29-1.22.18-.23 1-1.1 1.28-1.53m-4.23-1a8.59 8.59 0 0 0 .21-3.97 4.86 4.86 0 0 0-.8-1.59 4.92 4.92 0 0 0-.79 1.59 8.59 8.59 0 0 0 .21 4c.11.49.54 2.52.54 2.52s.44-2 .55-2.52m-1.87 7.11a3.34 3.34 0 0 0 .68-1.26A2.89 2.89 0 0 0 28 40h-.26a1.82 1.82 0 0 1-.67 1.35 1 1 0 0 1-1.39.06c-.09-.08-.64-.55-1.05-.39a.37.37 0 0 0-.24.41 2.33 2.33 0 0 0 .06.25.45.45 0 0 1 .43-.26c.3 0 .54.52.64.65s.44.59.81.59a1.23 1.23 0 0 0 .93-.55m2.27.13a3 3 0 0 1-.51-.78 2.71 2.71 0 0 1-.23-1.36h-.41a2.71 2.71 0 0 1-.23 1.36 3 3 0 0 1-.51.78 3.94 3.94 0 0 0 .33.87 6.65 6.65 0 0 0 .61.86 6.22 6.22 0 0 0 .62-.86 3.94 3.94 0 0 0 .33-.87m-1-2.64c.69 0 1.25-.38 1.25-.85s-.56-.85-1.25-.85-1.24.38-1.24.85.56.85 1.24.85m1.57 1.7a1.82 1.82 0 0 1-.67-1.3l-.26.07a2.89 2.89 0 0 0 .06.78 3.34 3.34 0 0 0 .68 1.26 1.23 1.23 0 0 0 .93.55c.37 0 .71-.46.81-.59s.34-.61.64-.65a.43.43 0 0 1 .42.26 1.78 1.78 0 0 0 .07-.25.37.37 0 0 0-.24-.41c-.41-.16-1 .31-1.05.39a1 1 0 0 1-1.39-.06m-4.51-8.17a1.48 1.48 0 0 0-1.79.55 2.16 2.16 0 0 0 0 2.31c.3.43 1.1 1.3 1.28 1.53.56.68.42 1.07.29 1.22-.33.39-.86.06-.86.06a.76.76 0 0 0 .43.45A.88.88 0 0 0 26 39c.39-.4.11-1 0-1.25s-.33-.56-.43-.73a1.25 1.25 0 0 1 .24-1.48c.54-.49 1.14-.09 1.44.39a6.28 6.28 0 0 1 .66 1.63h.26s-.12-.59-.23-1a10.42 10.42 0 0 0-.6-1.72 3.1 3.1 0 0 0-1.74-1.63M14.11 54.59a8.59 8.59 0 0 0 .25-3.93 4.86 4.86 0 0 0-.8-1.59 4.92 4.92 0 0 0-.79 1.59 8.59 8.59 0 0 0 .23 3.93c.11.49.54 2.52.54 2.52s.44-2 .55-2.52m-1.74-1a9.84 9.84 0 0 1-.22-1 6.52 6.52 0 0 1-.06-1 1.66 1.66 0 0 0-.53-.35 1.59 1.59 0 0 0-.74-.13s.08.27.15.58.1.68.1.68a2.48 2.48 0 0 1 .65.42 6.33 6.33 0 0 1 .65.77m-1.8-.84a1.48 1.48 0 0 0-1.79.55 2.13 2.13 0 0 0 0 2.31c.3.43 1.1 1.3 1.28 1.53.56.68.42 1.07.29 1.22-.33.39-.86.06-.86.06a.74.74 0 0 0 .43.45.89.89 0 0 0 1.1-.19c.39-.41.11-1 0-1.26s-.33-.56-.43-.73a1.25 1.25 0 0 1 .24-1.48c.54-.49 1.14-.09 1.44.39a6.28 6.28 0 0 1 .66 1.64l.12-.05h.14s-.12-.59-.23-1a10.42 10.42 0 0 0-.6-1.72 3.1 3.1 0 0 0-1.74-1.63M9.37 61a2.33 2.33 0 0 0 .06.25.45.45 0 0 1 .43-.25c.3.05.54.52.64.65s.44.59.81.59a1.23 1.23 0 0 0 .93-.55 3.49 3.49 0 0 0 .68-1.26 2.89 2.89 0 0 0 .06-.78l-.26-.07a1.85 1.85 0 0 1-.67 1.42 1.06 1.06 0 0 1-1.39 0c-.09-.08-.64-.55-1.05-.39a.37.37 0 0 0-.24.41m8.38 0a.36.36 0 0 0-.23-.41c-.41-.16-1 .31-1.05.39a1.06 1.06 0 0 1-1.39 0 1.85 1.85 0 0 1-.67-1.36l-.26.07a2.89 2.89 0 0 0 .06.78 3.34 3.34 0 0 0 .68 1.26 1.23 1.23 0 0 0 .93.55c.37 0 .71-.46.81-.59s.34-.6.64-.65a.43.43 0 0 1 .42.26 1.12 1.12 0 0 0 .06-.25m-2.95-2.73c0-.47-.55-.85-1.24-.85s-1.24.38-1.24.85.56.85 1.24.85 1.24-.38 1.24-.85m1.36-6.6c.07-.31.15-.58.15-.58a1.59 1.59 0 0 0-.74.13 1.51 1.51 0 0 0-.53.35 8.34 8.34 0 0 1-.06 1 8.64 8.64 0 0 1-.23 1 6.33 6.33 0 0 1 .65-.77 2.63 2.63 0 0 1 .66-.42s0-.37.1-.68m.4 1a3.1 3.1 0 0 0-1.74 1.63 11.4 11.4 0 0 0-.61 1.72c-.1.42-.23 1-.23 1h.14l.13.05a6.28 6.28 0 0 1 .66-1.64c.3-.48.9-.88 1.44-.39a1.26 1.26 0 0 1 .24 1.48c-.1.17-.28.5-.43.73a1.05 1.05 0 0 0 0 1.26.88.88 0 0 0 1.07.24.77.77 0 0 0 .44-.45s-.53.33-.86-.06c-.13-.15-.28-.54.29-1.22.18-.23 1-1.1 1.28-1.53a2.14 2.14 0 0 0 0-2.31 1.47 1.47 0 0 0-1.78-.55m-3.94 9.06a3.94 3.94 0 0 0 .33.87 5.71 5.71 0 0 0 .61.86 6.22 6.22 0 0 0 .62-.86 3.94 3.94 0 0 0 .33-.87 3 3 0 0 1-.51-.78 2.7 2.7 0 0 1-.23-1.36h-.41a2.7 2.7 0 0 1-.23 1.36 3 3 0 0 1-.51.78m14.13 8a6.79 6.79 0 0 1 .65.76 8.64 8.64 0 0 1-.23-1 6.41 6.41 0 0 1-.06-1 1.44 1.44 0 0 0-.53-.36 1.76 1.76 0 0 0-.74-.13s.08.27.15.58.1.69.1.69a2.33 2.33 0 0 1 .66.42m-2.95.48a2.14 2.14 0 0 0 0 2.3c.3.43 1.1 1.31 1.28 1.53.56.69.42 1.07.29 1.22-.33.39-.86.06-.86.06a.77.77 0 0 0 .43.46.89.89 0 0 0 1.02-.21c.39-.4.11-1 0-1.25s-.33-.56-.43-.74a1.23 1.23 0 0 1 .24-1.47c.54-.49 1.14-.1 1.44.38a6.28 6.28 0 0 1 .66 1.64.48.48 0 0 1 .13 0h.13s-.12-.58-.23-1a10.29 10.29 0 0 0-.6-1.71 3.1 3.1 0 0 0-1.74-1.64 1.5 1.5 0 0 0-1.79.56m.58 7.64a2.33 2.33 0 0 0 .06.25.45.45 0 0 1 .43-.26c.3 0 .54.52.64.65s.44.59.81.59a1.2 1.2 0 0 0 .93-.55 3.17 3.17 0 0 0 .68-1.26 2.83 2.83 0 0 0 .06-.77l-.26-.07a1.82 1.82 0 0 1-.67 1.35 1 1 0 0 1-1.39 0c-.09-.07-.64-.55-1.05-.39a.38.38 0 0 0-.24.41m3.25.81a3.94 3.94 0 0 0 .33.87 7.18 7.18 0 0 0 .61.87 6.69 6.69 0 0 0 .62-.87 3.94 3.94 0 0 0 .33-.87A2.78 2.78 0 0 1 29 78a2.7 2.7 0 0 1-.23-1.36h-.41a2.7 2.7 0 0 1-.21 1.36 2.78 2.78 0 0 1-.51.78m2.27-.13a1.2 1.2 0 0 0 .93.55c.37 0 .71-.46.81-.59s.34-.6.64-.65a.43.43 0 0 1 .42.26 1.78 1.78 0 0 0 .07-.25.38.38 0 0 0-.24-.41c-.41-.16-1 .32-1.05.39a1 1 0 0 1-1.39 0 1.82 1.82 0 0 1-.67-1.35l-.26.07a2.83 2.83 0 0 0 .06.77 3.17 3.17 0 0 0 .68 1.26m-1.33-4.2c-.68 0-1.24.38-1.24.85s.56.85 1.24.85 1.25-.38 1.25-.85-.56-.85-1.25-.85m0-.38s.44-2 .55-2.52a8.59 8.59 0 0 0 .25-3.93 4.84 4.84 0 0 0-.8-1.6 4.9 4.9 0 0 0-.79 1.6 8.59 8.59 0 0 0 .21 3.87c.11.49.54 2.52.54 2.52m2.6-5.38c.07-.31.15-.58.15-.58a1.76 1.76 0 0 0-.74.13 1.44 1.44 0 0 0-.53.36 8.22 8.22 0 0 1-.06 1 8.64 8.64 0 0 1-.23 1 5.79 5.79 0 0 1 .65-.76 2.33 2.33 0 0 1 .66-.42s0-.37.1-.69m2.18 3.89a2.12 2.12 0 0 0 0-2.3 1.48 1.48 0 0 0-1.78-.56 3.1 3.1 0 0 0-1.74 1.64 11.26 11.26 0 0 0-.61 1.71c-.1.43-.22 1-.22 1h.13a.48.48 0 0 1 .13 0 6.28 6.28 0 0 1 .66-1.64c.3-.48.9-.87 1.44-.38a1.24 1.24 0 0 1 .24 1.47c-.1.18-.28.5-.43.74s-.43.85 0 1.25a.88.88 0 0 0 1.07.25.8.8 0 0 0 .44-.46s-.53.33-.86-.06c-.13-.15-.28-.53.29-1.22.18-.22 1-1.1 1.28-1.53m10.86-9.82a3.94 3.94 0 0 0 .33-.87 3 3 0 0 1-.51-.78 2.7 2.7 0 0 1-.23-1.36h-.41a2.7 2.7 0 0 1-.23 1.36 3 3 0 0 1-.51.78 3.94 3.94 0 0 0 .33.87 6.65 6.65 0 0 0 .61.86 6.22 6.22 0 0 0 .62-.86m-.62-5.21c-.68 0-1.24.38-1.24.85s.56.85 1.24.85 1.25-.38 1.25-.85-.56-.85-1.25-.85m-4 3.12a.37.37 0 0 0-.24.41 2.33 2.33 0 0 0 .06.25.45.45 0 0 1 .48-.27c.3.05.54.52.64.65s.44.59.81.59a1.23 1.23 0 0 0 .93-.55 3.34 3.34 0 0 0 .72-1.25 2.89 2.89 0 0 0 .06-.78l-.26-.07a1.85 1.85 0 0 1-.71 1.41 1.06 1.06 0 0 1-1.39 0c-.09-.08-.64-.55-1.05-.39m2.12-7.77a7.53 7.53 0 0 1 .65.77 8.64 8.64 0 0 1-.23-1 6.52 6.52 0 0 1-.06-1 1.51 1.51 0 0 0-.53-.35 1.59 1.59 0 0 0-.74-.13s.08.27.15.58.1.68.1.68a2.63 2.63 0 0 1 .66.42M43 56.12a10.42 10.42 0 0 0-.6-1.72 3.1 3.1 0 0 0-1.74-1.63 1.46 1.46 0 0 0-1.78.55 2.14 2.14 0 0 0 0 2.31c.3.43 1.1 1.3 1.28 1.53.56.68.42 1.07.29 1.22-.33.39-.86.06-.86.06a.74.74 0 0 0 .43.45.89.89 0 0 0 1.08-.24c.39-.41.11-1 0-1.26s-.33-.56-.43-.73a1.25 1.25 0 0 1 .24-1.48c.54-.49 1.14-.09 1.44.39a6.28 6.28 0 0 1 .66 1.64l.13-.05h.13s-.12-.59-.23-1m2 5.58a1.23 1.23 0 0 0 .93.55c.37 0 .71-.46.81-.59s.34-.6.64-.65a.45.45 0 0 1 .43.26 2.33 2.33 0 0 0-.05-.31.37.37 0 0 0-.24-.41c-.41-.16-1 .31-1.05.39a1.06 1.06 0 0 1-1.39 0 1.85 1.85 0 0 1-.67-1.36l-.26.07a2.89 2.89 0 0 0 .06.78 3.34 3.34 0 0 0 .68 1.26m-13.6-30.21a1.59 1.59 0 0 0-.74.13 1.51 1.51 0 0 0-.53.35 8.34 8.34 0 0 1-.06 1 8.64 8.64 0 0 1-.23 1 6.33 6.33 0 0 1 .65-.77 2.63 2.63 0 0 1 .66-.42s0-.37.1-.68.15-.58.15-.58M27.4 34a8.64 8.64 0 0 1-.23-1 6.52 6.52 0 0 1-.06-1 1.51 1.51 0 0 0-.53-.35 1.59 1.59 0 0 0-.74-.13s.08.27.15.58.1.68.1.68a2.63 2.63 0 0 1 .66.42 7.53 7.53 0 0 1 .65.77M52.54 9.89a.78.78 0 0 1 .5 0c.53.22.74 1.06.45 1.88a1.61 1.61 0 0 1-1.06 1.12l-2.22 4.88a2 2 0 0 1 2 1.95 2 2 0 0 1-2 1.94H6.92a2 2 0 0 1-2-1.94H5a2 2 0 0 1 2-1.95l-2.26-4.86a1.61 1.61 0 0 1-1.06-1.12c-.29-.82-.08-1.66.45-1.88a.75.75 0 0 1 .39 0c-.18-4.34-.34-6.15-2.7-7 2.06-1.3 3.91-1 5 1.64.33-.66.44-1 1.09-1.31a6.91 6.91 0 0 1-1.63 6.2 7.94 7.94 0 0 1 5.66-2.17 1.31 1.31 0 0 1-.55 1.08 7.11 7.11 0 0 1 2.5 2.72 7 7 0 0 1-2.5 2.72 1.33 1.33 0 0 1 .55 1.09 7.94 7.94 0 0 1-5.66-2.18c.76 1.85 3.26 3.59 4.35 3.59.92 0 3.4-1.4 5.13-3.81a1.75 1.75 0 1 1 1.71 0c1.73 2.41 4.21 3.81 5.13 3.81A5.55 5.55 0 0 0 27 12.7a7.94 7.94 0 0 1-5.66 2.17 1.33 1.33 0 0 1 .55-1.09 7.09 7.09 0 0 1-2.51-2.72 7.23 7.23 0 0 1 2.51-2.72 1.31 1.31 0 0 1-.55-1.08A7.94 7.94 0 0 1 27 9.43a7.94 7.94 0 0 1-2.17-5.66 1.31 1.31 0 0 1 1.08.55 7.23 7.23 0 0 1 2.72-2.51 7.09 7.09 0 0 1 2.67 2.51 1.33 1.33 0 0 1 1.09-.55 7.94 7.94 0 0 1-2.17 5.66 7.92 7.92 0 0 1 5.66-2.17 1.31 1.31 0 0 1-.55 1.08 7.11 7.11 0 0 1 2.5 2.72 7 7 0 0 1-2.5 2.72 1.33 1.33 0 0 1 .55 1.09 7.92 7.92 0 0 1-5.66-2.17 5.55 5.55 0 0 0 4.35 3.59c.92 0 3.4-1.4 5.13-3.81a1.75 1.75 0 1 1 2.6-1.7 1.77 1.77 0 0 1-.89 1.7c1.73 2.41 4.21 3.81 5.13 3.81 1.09 0 3.59-1.74 4.35-3.59a7.94 7.94 0 0 1-5.66 2.17 1.33 1.33 0 0 1 .55-1.09 7.09 7.09 0 0 1-2.51-2.72 7.23 7.23 0 0 1 2.51-2.72 1.31 1.31 0 0 1-.55-1.08 7.94 7.94 0 0 1 5.66 2.17 6.91 6.91 0 0 1-1.63-6.2c.65.33.76.65 1.09 1.31 1.09-2.62 2.94-2.94 5-1.64-2.37.82-2.75 2.64-2.81 7m3.78-8.52a6 6 0 0 0-3.16-1 4.32 4.32 0 0 0-3.06 1.24 1.81 1.81 0 0 0-2.58 1.22 8.69 8.69 0 0 0-.2 2.8 11.52 11.52 0 0 0-2.06-.19 1.81 1.81 0 0 0-1.81 1.82 3.26 3.26 0 0 0 .06.62l-.5.47a3.55 3.55 0 0 0-2-.94h-.4a3.5 3.5 0 0 0-2.42 1l-.5-.47a3.26 3.26 0 0 0 .06-.62 1.81 1.81 0 0 0-1.81-1.82 10.82 10.82 0 0 0-1.82.15 10.9 10.9 0 0 0 .15-1.82A1.82 1.82 0 0 0 32.39 2a3.18 3.18 0 0 0-.62.06A7.28 7.28 0 0 0 29.4.19a1.87 1.87 0 0 0-1.63 0A7.28 7.28 0 0 0 25.4 2a3.26 3.26 0 0 0-.62 0A1.81 1.81 0 0 0 23 3.77a10.9 10.9 0 0 0 .15 1.82 10.9 10.9 0 0 0-1.82-.15 1.81 1.81 0 0 0-1.81 1.82 3.26 3.26 0 0 0 .06.62l-.5.47a3.55 3.55 0 0 0-2-.94h-.4a3.5 3.5 0 0 0-2.42 1l-.5-.47a3.26 3.26 0 0 0 .06-.62 1.81 1.81 0 0 0-1.81-1.82 11.52 11.52 0 0 0-2.06.19 8.69 8.69 0 0 0-.2-2.8A1.81 1.81 0 0 0 7.1 1.61 4.34 4.34 0 0 0 4 .34a6 6 0 0 0-3.16 1 1.81 1.81 0 0 0 .37 3.25c1 .33 1.25.74 1.43 4.12A3.43 3.43 0 0 0 2 12.38a3.71 3.71 0 0 0 1.4 1.88l1.17 2.57a3.77 3.77 0 0 0-1.38 2.84v.06a3.78 3.78 0 0 0 3.73 3.77h43.33A3.78 3.78 0 0 0 54 19.76v-.06a3.75 3.75 0 0 0-1.38-2.87l1.17-2.57a3.71 3.71 0 0 0 1.4-1.88 3.36 3.36 0 0 0-.83-3.75c.14-3.36.64-3.69 1.57-4a1.81 1.81 0 0 0 1.2-1.51 1.79 1.79 0 0 0-.83-1.74"/></svg>
