<svg version="1.1" id="espoo-logo" xmlns="http://www.w3.org/2000/svg" x="0" y="0" viewBox="0 0 445.7 230" xml:space="preserve"><style>.st0{fill:#fff}</style><path class="st0" d="M99.1 196.7c20.9-7 42.2-20.1 60.4-38.4 1.2-1.2 2.5-2.5 3.7-3.8 41.6-44.2 54.3-104.2 23.1-135.4C154.2-13 91.7 1.3 47.2 45.9 14.3 78.8-2.2 121.5 4.4 154.5c2.3 11.7 7.6 22.1 15.9 30.5 5 5 10.7 8.8 17 11.6 9.8 4.4 21 6.2 32.9 5.6 1.9 2.8 4.1 5.5 6.6 8 27.5 27.5 77.5 19.5 113.6-13.7 1.3-1.2 2.7-2.5 4-3.8.9-.8 1.4-2 1.4-3.3 0-2.5-2-4.5-4.5-4.5-1.3 0-2.4.5-3.3 1.4-3.4 3.4-7.4 6.8-11.9 10.2-26.6 19.5-70 34.7-95.3 4.6 6-.8 12.2-2.3 18.3-4.4zm-37.8-42.2c-2.2 13.8-1 27.2 4 38.8-15.4-.2-28.9-5.1-38.5-14.7-6.5-6.5-10.8-14.7-13-24.1C7 125.4 20.6 85.2 53.5 52.2 97.2 8.7 153.5-.9 180 25.5c9.5 9.5 14.4 22.9 14.6 38.2-29.5-12.6-70.4-.7-100.3 29.1-18.1 18.2-29.6 40.4-33 61.7m89.2 0c-23.9 22.8-51.2 35.7-75.3 38.3-5.6-10.8-7.1-24.2-4.7-38.3m0 0c3.2-18.6 13.3-38.4 30.3-55.3 29.8-29.8 68.4-38.4 93.4-25.7-2.6 25.1-16.4 53.8-41 78.4-.9.9-1.8 1.8-2.7 2.6M260.5 136.4h11.6v-7.8h-11.6v-7h20v-7.9h-28.1V154h28.9v-7.9h-20.8zM346 113.7h-17.6V154h8.1v-14.3h8.9c8.4 0 14.6-3.9 14.6-13.3-.1-8.5-6.4-12.7-14-12.7zm-.2 18.2h-9.4v-10.4h9.3c3.6 0 5.9 1.6 5.9 5.1 0 3.6-2.1 5.3-5.8 5.3zM383.8 113.1c-11 0-17.5 8.5-17.5 20.8 0 11.3 5.5 19.5 15 20.7h2.5-2.5c.8.1 1.6.2 2.5.2.9 0 1.7-.1 2.5-.2 9.5-1.2 15-9.3 15-20.7 0-12.3-6.5-20.8-17.5-20.8zm0 33.6c-6.5 0-9.2-5.6-9.2-12.8 0-7.2 2.7-12.8 9.2-12.8 6.5 0 9.2 5.6 9.2 12.8 0 7.2-2.7 12.8-9.2 12.8zM305.4 129.4c-6.4-1.5-8.1-2.3-8.1-4.8 0-1.8 1.4-3.6 5.8-3.6 3.7 0 6.6 1.5 9.2 4.2l5.8-5.6c-3.8-4-8.4-6.3-14.7-6.3-8 0-14.4 4.5-14.4 11.8 0 8 5.2 10.3 12.6 12 7.6 1.7 9 2.9 9 5.5 0 3.1-2.2 4.4-7 4.4-3.9 0-7.5-1.3-10.3-4.6l-5.8 5.2c2.6 3.9 7.4 6.5 13 7.2h.1c.8.1 1.7.1 2.6.1 1.1 0 2.1-.1 3.1-.2h.1c8.8-.9 12.7-5.8 12.7-12.7-.2-8.9-7.3-11.1-13.7-12.6zM425.9 113.1c-11 0-17.5 8.5-17.5 20.8 0 11.3 5.5 19.5 15 20.7h2.5-2.5c.8.1 1.6.2 2.5.2.9 0 1.7-.1 2.5-.2 9.5-1.2 15-9.3 15-20.7 0-12.3-6.5-20.8-17.5-20.8zm0 33.6c-6.5 0-9.2-5.6-9.2-12.8 0-7.2 2.7-12.8 9.2-12.8 6.5 0 9.2 5.6 9.2 12.8 0 7.2-2.7 12.8-9.2 12.8z"/></svg>