<svg xmlns="http://www.w3.org/2000/svg" viewBox="0 0 57.1 87.9"><path d="M51.6 73.6c0 5.2-4.2 9.4-9.4 9.4H34c-2 0-4 .8-5.4 2.2-1.4-1.5-3.4-2.3-5.4-2.2H15c-5.2 0-9.4-4.2-9.4-9.4V28.4c0-.4.3-.7.7-.7h44.6c.4 0 .7.3.7.7v45.2zm-.7-48.1H6.3c-1.6 0-2.9 1.3-2.9 2.9v45.3c0 6.4 5.2 11.6 11.6 11.6h8.1c1 0 2 .3 2.9.8.6.4 1.1.8 1.5 1.3.2.3.6.5 1 .5s.8-.2 1-.5c1.1-1.3 2.7-2.1 4.4-2.1h8.2c6.4 0 11.6-5.2 11.6-11.6V28.4c.1-1.6-1.2-2.9-2.8-2.9m-2.5 30.1c.5-.7.5-1.6 0-2.3-.4-.6-1.1-.8-1.8-.5-.8.3-1.4.9-1.7 1.6-.2.6-.5 1.1-.6 1.7-.1.4-.2 1-.2 1h.2c.2-.6.4-1.1.7-1.6.3-.5.9-.9 1.4-.4.4.4.5 1 .2 1.5-.1.2-.3.5-.4.7s-.4.8 0 1.3c.3.3.7.4 1.1.2.2-.1.4-.2.4-.5 0 0-.5.3-.9-.1-.1-.2-.3-.5.3-1.2.3-.1 1.1-.9 1.3-1.4m-1.9-4.4c-.3 0-.5 0-.7.1-.2.1-.4.2-.5.3 0 .3 0 .7-.1 1-.1.3-.1.7-.2 1 .2-.3.4-.5.7-.8.2-.2.4-.3.7-.4 0 0 0-.4.1-.7s0-.5 0-.5m-2.2 3.4c.4-1.3.5-2.6.2-3.9-.2-.6-.4-1.1-.8-1.6-.4.5-.6 1-.8 1.6-.2 1.3-.1 2.7.2 3.9l.5 2.5s.6-2 .7-2.5M44 69.4s-.1.2-1.1.5-1.5-.9-1.6-1.2c-.4-1.2-1.2-1.3-1.9-1.6s-2.7-.8-3.1-.9c-1.1-.3-1-.6-.9-.8s1 0 1.5.2c.6.2 1.2.3 1.8.3.8-.1.9-1 .7-1.6s-5.2-14.4-5.2-14.4h1.4s.5-2.1.8-2.9c.3-1.2 1-2.3 1.9-3.2 1.3-.8 1.7 0 1.8.2.2.4.1.9-.2 1.2.1.1.3.1.5.1.4 0 .8-.2 1-.5.4-.5.4-1.2.1-1.7.7-.2 1.2-.8 1.3-1.5.5-1.6-1.2-2.8-1.2-2.8s.1.1-.1.9-1.5 1.1-2.1 1.3c-1.3.4-2.4 1.1-3.2 2.2-.6.9-1.1 1.9-1.4 2.9H22.5c-.3-1-.8-2-1.4-2.9-.8-1-1.9-1.8-3.2-2.2-.6-.2-2-.5-2.1-1.3s-.1-.9-.1-.9-1.7 1.2-1.2 2.8c.1.7.7 1.3 1.3 1.5-.4.5-.3 1.2.1 1.7.2.3.6.5 1 .5.2 0 .3 0 .5-.1-.3-.3-.4-.8-.3-1.2.1-.2.5-1.1 1.8-.2.9.9 1.6 2 1.9 3.2.3.9.8 2.9.8 2.9H23s-5 13.9-5.2 14.4-.1 1.5.7 1.6c.6 0 1.2-.1 1.8-.3.5-.2 1.3-.5 1.5-.2s.2.5-.9.8c-.4.1-2.4.7-3.1.9s-1.5.4-1.9 1.6c-.1.3-.5 1.5-1.6 1.2s-1.1-.5-1.1-.5c.3.9.9 1.6 1.6 2.1 1 .6 2.3.3 3.1-.5.4.4 1 .5 1.5.3.4-.1.8-.3 1-.6.1-.1.1-.2.2-.3 0 0-1 0-1.2-.5-.1-.3-.1-.7.9-1.3.3-.2 1.9-1.1 2.5-1.5s1.5-1.1 1.1-2c-.2-.4-.6-.7-1-.9l2.6-9.8 3.1 5.2 3.1-5.2 2.6 9.8c-.4.2-.8.5-1 .9-.4.8.5 1.5 1.1 2s2.2 1.3 2.5 1.5c1 .7 1 1.1.9 1.3-.2.5-1.2.5-1.2.5.1.1.1.2.2.3.2.3.6.5.9.6.5.1 1.1 0 1.5-.3.8.9 2 1.2 3.1.6.8-.6 1.4-1.3 1.7-2.2M31.6 49.5l-3 5.3-3-5.3h6zM33.4 36c.5-.7.5-1.6 0-2.3-.4-.6-1.1-.8-1.8-.5-.8.3-1.4.9-1.7 1.6-.2.6-.5 1.1-.6 1.7-.1.4-.2 1-.2 1h.3c.1-.6.4-1.1.7-1.6.3-.5.9-.9 1.4-.4.4.4.5 1 .2 1.5-.1.2-.3.5-.4.7s-.4.8 0 1.2c.3.3.7.4 1.1.2.2-.1.4-.2.4-.5 0 0-.5.3-.9-.1-.1-.2-.3-.5.3-1.2.1 0 .9-.9 1.2-1.3m-4.2-1c.4-1.3.5-2.6.2-4-.2-.6-.4-1.1-.8-1.6-.4.5-.6 1-.8 1.6-.2 1.3-.2 2.7.2 4l.5 2.5s.5-2 .7-2.5m-2 7.1c.3-.4.5-.8.7-1.3.1-.2.1-.5.1-.8h-.3c0 .5-.3 1-.7 1.3-.4.4-1 .4-1.4.1-.1-.1-.6-.5-1-.4-.2.1-.3.2-.2.4 0 .1 0 .2.1.2.1-.2.2-.3.4-.3.3 0 .5.5.6.7s.4.6.8.6.8-.2.9-.5m2.3.1c-.2-.2-.4-.5-.5-.8-.2-.4-.3-.9-.2-1.4h-.4c0 .5 0 .9-.2 1.4-.1.3-.3.5-.5.8l.3.9.6.9.6-.9c.1-.3.3-.6.3-.9m-1-2.6c.7 0 1.2-.4 1.2-.8s-.6-.8-1.2-.8-1.2.4-1.2.8.6.8 1.2.8m1.6 1.7c-.4-.3-.6-.8-.7-1.3l-.3.1c0 .3 0 .5.1.8.1.5.4.9.7 1.3.2.3.6.5.9.5.4 0 .7-.5.8-.6s.3-.6.6-.7c.2 0 .3.1.4.3 0-.1.1-.2.1-.2 0-.2-.1-.3-.2-.4-.4-.2-1 .3-1 .4-.4.3-1 .2-1.4-.2m-4.5-8.1c-.7-.3-1.4 0-1.8.5-.4.7-.4 1.6 0 2.3.3.4 1.1 1.3 1.3 1.5.6.7.4 1.1.3 1.2-.3.4-.9.1-.9.1.1.2.2.4.4.5.4.2.8 0 1.1-.3.4-.4.1-1 0-1.2s-.3-.6-.4-.7c-.3-.5-.2-1.1.2-1.5.5-.5 1.1-.1 1.4.4.3.5.5 1.1.7 1.6h.3s-.1-.6-.2-1c-.1-.6-.4-1.2-.6-1.7-.4-.8-1-1.4-1.8-1.7M14.1 54.6c.4-1.3.5-2.6.2-3.9-.2-.6-.4-1.1-.8-1.6-.4.5-.6 1-.8 1.6-.2 1.3-.1 2.7.2 3.9l.5 2.5s.6-2 .7-2.5m-1.8-1c-.1-.3-.2-.7-.2-1 0-.3-.1-.7-.1-1-.2-.1-.3-.3-.5-.3-.2-.1-.5-.1-.7-.1 0 0 .1.3.1.6s.1.7.1.7c.2.1.5.2.6.4.3.1.6.4.7.7m-1.8-.9c-.7-.3-1.4 0-1.8.5-.5.7-.5 1.6 0 2.3.3.4 1.1 1.3 1.3 1.5.6.7.4 1.1.3 1.2-.3.4-.9.1-.9.1.1.2.2.4.4.5.4.2.8.1 1.1-.2.4-.4.1-1 0-1.3s-.3-.6-.4-.7c-.3-.5-.2-1.1.2-1.5.5-.5 1.1-.1 1.4.4.3.5.5 1.1.7 1.6h.2s-.1-.6-.2-1c-.1-.6-.4-1.2-.6-1.7-.2-.7-.8-1.3-1.7-1.7M9.4 61c0 .1 0 .2.1.2 0-.1.2-.2.4-.2.3 0 .5.5.6.7s.4.6.8.6.7-.2.9-.5c.3-.4.5-.8.7-1.3.1-.3.1-.5.1-.8l-.3-.1c0 .5-.2 1.1-.7 1.4-.4.3-1 .3-1.4 0-.1-.1-.6-.5-1.1-.4-.1.1-.2.2-.1.4m8.4 0c0-.2-.1-.3-.2-.4-.4-.2-1 .3-1 .4-.4.3-1 .3-1.4 0-.4-.3-.7-.8-.7-1.4l-.3.1c0 .3 0 .5.1.8.1.5.4.9.7 1.3.2.3.6.5.9.5.4 0 .7-.5.8-.6s.3-.6.6-.7c.2 0 .3.1.4.3 0-.1 0-.1.1-.3m-3-2.7c0-.5-.6-.8-1.2-.8s-1.2.4-1.2.8.6.8 1.2.8 1.2-.3 1.2-.8m1.4-6.6c.1-.3.1-.6.1-.6-.3 0-.5 0-.7.1-.2.1-.4.2-.5.3 0 .3 0 .7-.1 1-.1.3-.1.7-.2 1 .2-.3.4-.5.6-.8.2-.2.4-.3.7-.4 0 .1 0-.2.1-.6m.4 1.1c-.8.3-1.4.9-1.7 1.6-.2.6-.5 1.1-.6 1.7-.1.4-.2 1-.2 1h.2c.1-.6.4-1.1.7-1.6.3-.5.9-.9 1.4-.4.4.4.5 1 .2 1.5-.1.2-.3.5-.4.7-.3.4-.3.9 0 1.3.3.3.7.4 1.1.2.2-.1.4-.2.4-.5 0 0-.5.3-.9-.1-.1-.2-.3-.5.3-1.2.2-.2 1-1.1 1.3-1.5.5-.7.5-1.6 0-2.3-.4-.5-1.2-.7-1.8-.4m-3.9 9l.3.9.6.9.6-.9c.1-.3.3-.6.3-.9-.2-.2-.4-.5-.5-.8-.2-.4-.3-.9-.2-1.4h-.4c0 .5 0 .9-.2 1.4-.2.3-.3.6-.5.8m14.1 8c.2.2.5.5.6.8-.1-.3-.2-.7-.2-1 0-.3-.1-.7-.1-1-.1-.2-.3-.3-.5-.4-.2-.1-.5-.1-.7-.1 0 0 .1.3.1.6s.1.7.1.7c.3 0 .5.2.7.4m-3 .4c-.4.7-.4 1.6 0 2.3.3.4 1.1 1.3 1.3 1.5.6.7.4 1.1.3 1.2-.3.4-.9.1-.9.1.1.2.2.4.4.5.3.2.8.1 1-.2.4-.4.1-1 0-1.2s-.3-.6-.4-.7c-.3-.5-.2-1.1.2-1.5.5-.5 1.1-.1 1.4.4.3.5.5 1.1.7 1.6h.2s-.1-.6-.2-1c-.1-.6-.4-1.2-.6-1.7-.3-.8-1-1.3-1.7-1.6-.7-.3-1.4 0-1.8.6m.7 7.5c0 .1 0 .2.1.2.1-.2.2-.3.4-.3.3 0 .5.5.6.7s.4.6.8.6.7-.2.9-.6c.3-.4.6-.8.7-1.3.1-.3.1-.5.1-.8l-.3-.1c0 .5-.3 1-.7 1.3-.4.4-1 .4-1.4 0-.1-.1-.6-.6-1-.4-.1.3-.2.5-.2.7m3.2.8l.3.9.6.9.6-.9c.1-.3.3-.6.3-.9-.2-.2-.4-.5-.5-.8-.2-.4-.3-.9-.2-1.4h-.4c0 .5 0 .9-.2 1.4-.1.3-.2.6-.5.8m2.3-.1c.2.3.6.5.9.6.4 0 .7-.5.8-.6s.4-.7.7-.7c.2 0 .3.1.4.3 0-.1.1-.2.1-.2 0-.2-.1-.3-.2-.4-.4-.2-1 .3-1 .4-.4.4-1 .4-1.4 0-.4-.3-.7-.8-.7-1.3l-.3.1c0 .3 0 .5.1.8.1.2.3.6.6 1m-1.3-4.2c-.7 0-1.2.4-1.2.8s.6.8 1.2.8 1.2-.4 1.2-.8-.5-.8-1.2-.8m0-.4l.5-2.5c.4-1.3.5-2.6.2-3.9-.2-.6-.4-1.1-.8-1.6-.4.5-.6 1-.8 1.6-.2 1.3-.2 2.6.2 3.9.2.4.6 2.5.7 2.5m2.5-5.4c.1-.3.1-.6.1-.6-.3 0-.5 0-.7.1-.2.1-.4.2-.5.4 0 .3 0 .7-.1 1-.1.3-.1.7-.2 1 .2-.3.4-.5.6-.8.2-.2.4-.3.7-.4 0 0 0-.4.1-.7m2.2 3.9c.5-.7.5-1.6 0-2.3-.4-.6-1.1-.8-1.8-.6-.8.3-1.4.9-1.7 1.6-.2.6-.5 1.1-.6 1.7-.1.4-.2 1-.2 1h.2c.1-.6.4-1.1.7-1.6.3-.5.9-.9 1.4-.4.4.4.5 1 .2 1.5-.1.2-.3.5-.4.7s-.4.8 0 1.2c.3.3.7.4 1.1.2.2-.1.4-.3.4-.5 0 0-.5.3-.9-.1-.1-.2-.3-.5.3-1.2.3 0 1.1-.8 1.3-1.2m10.9-9.9c.1-.3.3-.6.3-.9-.2-.2-.4-.5-.5-.8-.2-.4-.3-.9-.2-1.4h-.4c0 .5 0 .9-.2 1.4-.1.3-.3.5-.5.8l.3.9.6.9.6-.9m-.6-5.2c-.7 0-1.2.4-1.2.8s.6.8 1.2.8 1.2-.4 1.2-.8-.5-.8-1.2-.8m-4 3.1c-.2.1-.3.2-.2.4 0 .1 0 .2.1.2.1-.2.3-.3.5-.3.3 0 .5.5.6.7s.4.6.8.6.7-.2.9-.5c.3-.4.6-.8.7-1.2.1-.3.1-.5.1-.8l-.3-.1c0 .6-.3 1.1-.7 1.4-.4.3-1 .3-1.4 0-.1-.1-.6-.5-1.1-.4m2.2-7.8c.2.2.5.5.7.8-.1-.3-.2-.7-.2-1 0-.3-.1-.7-.1-1-.1-.2-.3-.3-.5-.3-.2-.1-.5-.1-.7-.1l.2.6c.1.3.1.7.1.7s.3.1.5.3m1.2 3.3c-.1-.6-.4-1.2-.6-1.7-.3-.8-1-1.3-1.7-1.6-.6-.3-1.4 0-1.8.5-.5.7-.5 1.6 0 2.3.3.4 1.1 1.3 1.3 1.5.6.7.4 1.1.3 1.2-.3.4-.9.1-.9.1.1.2.2.4.4.5.4.2.8.1 1.1-.2.4-.4.1-1 0-1.3s-.3-.6-.4-.7c-.3-.5-.2-1.1.2-1.5.5-.5 1.1-.1 1.4.4.3.5.5 1.1.7 1.6h.2c.1 0 0-.6-.2-1.1m2 5.6c.2.3.6.5.9.5.4 0 .7-.5.8-.6s.3-.6.6-.7c.2 0 .4.1.4.3v-.3c0-.2-.1-.3-.2-.4-.4-.2-1 .3-1 .4-.4.3-1 .3-1.4 0-.4-.3-.7-.8-.7-1.4l-.3.1c0 .3 0 .5.1.8.1.5.4.9.7 1.3M31.3 31.5c-.3 0-.5 0-.7.1-.2.1-.4.2-.5.4 0 .3 0 .7-.1 1-.1.3-.1.7-.2 1 .2-.3.4-.5.6-.8.2-.2.4-.3.7-.4 0 0 0-.4.1-.7s.1-.6.1-.6M27.4 34c-.1-.3-.2-.7-.2-1 0-.3-.1-.7-.1-1-.1-.2-.3-.3-.5-.4-.2-.1-.5-.1-.7-.1 0 0 .1.3.1.6s.1.7.1.7c.2.1.5.2.7.4.2.2.4.5.6.8M52.5 9.9c.2-.1.3-.1.5 0 .5.2.7 1.1.5 1.9-.1.5-.5 1-1.1 1.1l-2.2 4.9c1.1 0 2 .9 2 2s-.9 1.9-2 1.9H6.9c-1.1 0-2-.9-2-1.9H5c0-1.1.9-2 2-2l-2.3-4.9c-.5-.2-.9-.6-1.1-1.1-.2-.8 0-1.7.5-1.9h.4c-.2-4.3-.3-6.2-2.7-7 2.1-1.3 3.9-1 5 1.6.3-.7.4-1 1.1-1.3.5 2.2-.1 4.5-1.6 6.2C7.8 8 9.8 7.2 11.9 7.3c0 .4-.2.8-.6 1.1 1.1.7 1.9 1.6 2.5 2.7-.6 1.1-1.4 2.1-2.5 2.7.3.3.6.7.6 1.1-2.1.1-4.1-.7-5.7-2.2.8 1.9 3.3 3.6 4.3 3.6.9 0 3.4-1.4 5.1-3.8-.8-.5-1.1-1.5-.7-2.4.5-.8 1.5-1.1 2.4-.7.8.5 1.1 1.5.7 2.4-.2.3-.4.5-.7.7 1.7 2.4 4.2 3.8 5.1 3.8 2-.3 3.7-1.7 4.4-3.6-1.5 1.4-3.6 2.2-5.7 2.2 0-.4.2-.8.5-1.1-1.1-.7-1.9-1.6-2.5-2.7.6-1.1 1.5-2 2.5-2.7-.3-.2-.6-.7-.5-1.1 2.3-.1 4.4.7 5.9 2.1-1.4-1.5-2.2-3.6-2.2-5.7.4 0 .8.2 1.1.6.7-1.1 1.6-1.9 2.7-2.5 1.1.6 2 1.5 2.7 2.5.3-.3.7-.5 1.1-.5.1 2.1-.7 4.1-2.2 5.7 1.5-1.4 3.6-2.2 5.7-2.2 0 .4-.2.8-.5 1.1 1.1.7 1.9 1.6 2.5 2.7-.6 1.1-1.4 2.1-2.5 2.7.3.3.6.7.5 1.1-2.1.1-4.1-.7-5.7-2.2.7 1.9 2.4 3.3 4.3 3.6.9 0 3.4-1.4 5.1-3.8-.8-.5-1.1-1.5-.7-2.4.5-.8 1.5-1.1 2.4-.7.5.3.8.8.9 1.3.1.7-.3 1.4-.9 1.7 1.7 2.4 4.2 3.8 5.1 3.8 1.1 0 3.6-1.7 4.3-3.6-1.5 1.4-3.6 2.2-5.7 2.2 0-.4.2-.8.5-1.1-1.1-.7-1.9-1.6-2.5-2.7.6-1.1 1.5-2 2.5-2.7-.3-.2-.6-.7-.5-1.1 2.1-.1 4.1.7 5.7 2.2-1.5-1.7-2.1-4-1.6-6.2.7.3.8.7 1.1 1.3 1.1-2.6 2.9-2.9 5-1.6-2.2.8-2.6 2.6-2.7 7m3.8-8.5c-.9-.6-2-1-3.2-1-1.1 0-2.2.4-3.1 1.2-.9-.4-2-.1-2.4.8-.1.1-.1.3-.1.4-.2.9-.3 1.9-.2 2.8-.7-.1-1.4-.2-2.1-.2-1 0-1.8.8-1.8 1.8 0 .2 0 .4.1.6l-.5.6c-.5-.5-1.3-.8-2-.9h-.4c-.9 0-1.8.4-2.4 1l-.5-.5c0-.2.1-.4.1-.6 0-1-.8-1.8-1.8-1.8-.6 0-1.2 0-1.8.2.1-.6.2-1.2.2-1.8 0-1-.8-1.8-1.8-1.8h-.1c-.2 0-.4 0-.6.1-.7-.8-1.5-1.4-2.4-1.9-.5-.2-1.1-.2-1.6 0-.9.4-1.7 1-2.4 1.8h-.6c-1 0-1.8.8-1.8 1.8 0 .6 0 1.2.1 1.8-.6-.1-1.2-.2-1.8-.2-1 0-1.8.8-1.8 1.8 0 .2 0 .4.1.6l-.5.5c-.5-.5-1.3-.8-2-.9h-.4c-.9 0-1.8.4-2.4 1l-.5-.5c0-.2.1-.4.1-.6 0-1-.8-1.8-1.8-1.8-.7 0-1.4.1-2.1.2.1-.9 0-1.9-.2-2.8-.2-1-1.1-1.6-2.1-1.5-.2 0-.4.1-.6.2C6.3.8 5.2.3 4 .3 2.9.3 1.8.7.8 1.3 0 1.9-.3 3 .3 3.8c.2.4.6.6 1 .8 1 .3 1.3.7 1.4 4.1-.9 1-1.2 2.4-.6 3.7.3.8.7 1.4 1.4 1.9l1.2 2.6c-.9.7-1.4 1.7-1.4 2.8v.1c0 2.1 1.7 3.7 3.7 3.8h43.3c2.1 0 3.7-1.7 3.8-3.7v-.1c0-1.1-.5-2.2-1.4-2.9l1.2-2.6c.7-.5 1.1-1.1 1.4-1.9.5-1.3.2-2.8-.8-3.8.1-3.4.6-3.7 1.6-4 .7-.2 1.1-.8 1.2-1.5-.1-.7-.4-1.4-1-1.7"/></svg>