<?xml version="1.0" encoding="UTF-8" standalone="no"?>
<!-- Created with Inkscape (http://www.inkscape.org/) -->
<svg
   xmlns:dc="http://purl.org/dc/elements/1.1/"
   xmlns:cc="http://web.resource.org/cc/"
   xmlns:rdf="http://www.w3.org/1999/02/22-rdf-syntax-ns#"
   xmlns:svg="http://www.w3.org/2000/svg"
   xmlns="http://www.w3.org/2000/svg"
   xmlns:sodipodi="http://inkscape.sourceforge.net/DTD/sodipodi-0.dtd"
   xmlns:inkscape="http://www.inkscape.org/namespaces/inkscape"
   width="500"
   height="840"
   id="svg2"
   sodipodi:version="0.32"
   inkscape:version="0.43"
   version="1.0"
   sodipodi:docbase=""
   sodipodi:docname="Turku.vaakuna.svg">
  <defs
     id="defs4" />
  <sodipodi:namedview
     id="base"
     pagecolor="#ffffff"
     bordercolor="#666666"
     borderopacity="1.0"
     inkscape:pageopacity="0.0"
     inkscape:pageshadow="2"
     inkscape:zoom="1"
     inkscape:cx="397.6727"
     inkscape:cy="568.72612"
     inkscape:document-units="px"
     inkscape:current-layer="layer1"
     inkscape:window-width="1138"
     inkscape:window-height="812"
     inkscape:window-x="2"
     inkscape:window-y="-2"
     showguides="true"
     inkscape:guide-bbox="true" />
  <metadata
     id="metadata7">
    <rdf:RDF>
      <cc:Work
         rdf:about="">
        <dc:format>image/svg+xml</dc:format>
        <dc:type
           rdf:resource="http://purl.org/dc/dcmitype/StillImage" />
      </cc:Work>
    </rdf:RDF>
  </metadata>
  <g
     inkscape:label="Layer 1"
     inkscape:groupmode="layer"
     id="layer1">
    <path
       style="fill:#fad330;fill-opacity:1;fill-rule:evenodd;stroke:#000000;stroke-width:2;stroke-linecap:butt;stroke-linejoin:miter;stroke-miterlimit:4;stroke-dasharray:none;stroke-opacity:1"
       d="M 445,170 L 55,170 L 30,115 C 27,56 30,34 4,25 C 23,13 40,16 50,40 C 53,34 54,31 60,28 C 65,50 59,67 45,85 C 60,70 80,65 97,65 C 97,68 96,72 92,75 C 105,85 110,90 115,100 C 110,110 105,115 92,125 C 96,128 97,132 97,135 C 80,135 60,130 45,115 C 52,132 75,148 85,148 C 95,148 125,130 140,100 C 155,130 185,148 195,148 C 205,148 230,135 235,115 C 220,130 200,135 183,135 C 183,132 184,128 188,125 C 175,115 170,110 165,100 C 170,90 175,85 188,75 C 184,72 183,68 183,65 C 200,65 220,70 235,85 C 220,70 215,50 215,33 C 218,33 222,34 225,38 C 235,25 240,20 250,15 C 260,20 265,25 275,38 C 278,34 282,33 285,33 C 285,50 280,70 265,85 C 280,70 300,65 317,65 C 317,68 316,72 312,75 C 325,85 330,90 335,100 C 330,110 325,115 312,125 C 316,128 317,132 317,135 C 300,135 280,130 265,115 C 270,135 295,148 305,148 C 315,148 345,130 360,100 C 375,130 405,148 415,148 C 425,148 448,132 455,115 C 440,130 420,135 403,135 C 403,132 404,128 408,125 C 395,115 390,110 385,100 C 390,90 395,85 408,75 C 404,72 403,68 403,65 C 420,65 440,70 455,85 C 441,67 435,50 440,28 C 446,31 447,34 450,40 C 460,16 477,13 496,25 C 470,34 470,56 470,115 L 445,170 z "
       id="path10242"
       sodipodi:nodetypes="cccccccccccccscsccccccscccccsccccccscscccccccccccc" />
    <path
       style="fill:#fad330;fill-opacity:1;fill-rule:evenodd;stroke:#000000;stroke-width:2px;stroke-linecap:butt;stroke-linejoin:miter;stroke-opacity:1"
       d="M 27,220 C 35,185 40,160 30,115 C 45,135 60,160 85,160 C 110,160 130,140 140,125 C 150,140 170,160 195,160 C 220,160 240,140 250,125 C 260,140 280,160 305,160 C 330,160 350,140 360,125 C 370,140 390,160 415,160 C 440,160 455,135 470,115 C 460,160 465,185 473,220 L 27,220 z "
       id="path4067"
       sodipodi:nodetypes="cccccccccccc" />
    <path
       style="fill:#0b268d;fill-opacity:1;fill-rule:evenodd;stroke:#000000;stroke-width:1px;stroke-linecap:butt;stroke-linejoin:miter;stroke-opacity:1"
       d="M 0.5,230 L 499.5,230 L 499.5,725 C 499.5,770 475,805 430,805 L 280,805 C 265,805 255,815 250,839 C 245,815 235,805 220,805 L 70,805 C 25,805 0.5,770 0.5,725 L 0.5,230 z "
       id="path1607"
       sodipodi:nodetypes="cccccccccc" />
    <path
       style="fill:#fad330;fill-opacity:1;fill-rule:evenodd;stroke:#000000;stroke-width:1.8284595px;stroke-linecap:butt;stroke-linejoin:miter;stroke-opacity:1"
       d="M 25,216 L 475,216 C 477,220 477,225 475,229 L 25,229 C 23,225 23,220 25,216 z "
       id="path1370"
       sodipodi:nodetypes="ccccc" />
    <path
       sodipodi:nodetypes="ccccc"
       id="path2245"
       d="M 30,162 L 470,162 C 472,166 472,172 470,176 L 30,176 C 28,170 28,166 30,162 z "
       style="fill:#fad330;fill-opacity:1;fill-rule:evenodd;stroke:#000000;stroke-width:1.90397823px;stroke-linecap:butt;stroke-linejoin:miter;stroke-opacity:1" />
    <path
       style="fill:#c01237;fill-opacity:1;fill-rule:evenodd;stroke:#000000;stroke-width:2px;stroke-linecap:butt;stroke-linejoin:miter;stroke-opacity:1"
       d="M 250,178 L 290,196 L 250,214 L 210,196 L 250,178 z "
       id="path4942" />
    <path
       style="fill:#c01237;fill-opacity:1;fill-rule:evenodd;stroke:#000000;stroke-width:2px;stroke-linecap:butt;stroke-linejoin:miter;stroke-opacity:1"
       d="M 35,178 L 75,196 L 35,214 L 20,196 L 35,178 z "
       id="path4944" />
    <path
       id="path4946"
       d="M 465,178 L 425,196 L 465,214 L 480,196 L 465,178 z "
       style="fill:#c01237;fill-opacity:1;fill-rule:evenodd;stroke:#000000;stroke-width:2px;stroke-linecap:butt;stroke-linejoin:miter;stroke-opacity:1" />
    <path
       style="fill:#0b268d;fill-opacity:1;fill-rule:evenodd;stroke:#000000;stroke-width:2px;stroke-linecap:butt;stroke-linejoin:miter;stroke-opacity:1"
       d="M 159.5,186 C 169.5,186 169.5,206 159.5,206 L 123.5,206 C 113.5,206 113.5,186 123.5,186 L 159.5,186 z "
       id="path6694"
       sodipodi:nodetypes="ccccc" />
    <path
       sodipodi:type="arc"
       style="fill:#fad330;fill-opacity:1;stroke:#000000;stroke-width:2;stroke-miterlimit:4;stroke-dasharray:none;stroke-opacity:1"
       id="path7575"
       sodipodi:cx="85"
       sodipodi:cy="190"
       sodipodi:rx="5.5"
       sodipodi:ry="5.5"
       d="M 90.5 190 A 5.5 5.5 0 1 1  79.5,190 A 5.5 5.5 0 1 1  90.5 190 z"
       transform="matrix(0.999996,0,0,1,13.00038,-1.999999)" />
    <path
       transform="matrix(0.999996,0,0,1,13.00031,14)"
       d="M 90.5 190 A 5.5 5.5 0 1 1  79.5,190 A 5.5 5.5 0 1 1  90.5 190 z"
       sodipodi:ry="5.5"
       sodipodi:rx="5.5"
       sodipodi:cy="190"
       sodipodi:cx="85"
       id="path7577"
       style="fill:#fad330;fill-opacity:1;stroke:#000000;stroke-width:2;stroke-miterlimit:4;stroke-dasharray:none;stroke-opacity:1"
       sodipodi:type="arc" />
    <path
       transform="matrix(0.999996,0,0,1,100.0003,-1.999998)"
       d="M 90.5 190 A 5.5 5.5 0 1 1  79.5,190 A 5.5 5.5 0 1 1  90.5 190 z"
       sodipodi:ry="5.5"
       sodipodi:rx="5.5"
       sodipodi:cy="190"
       sodipodi:cx="85"
       id="path7579"
       style="fill:#fad330;fill-opacity:1;stroke:#000000;stroke-width:2;stroke-miterlimit:4;stroke-dasharray:none;stroke-opacity:1"
       sodipodi:type="arc" />
    <path
       sodipodi:type="arc"
       style="fill:#fad330;fill-opacity:1;stroke:#000000;stroke-width:2;stroke-miterlimit:4;stroke-dasharray:none;stroke-opacity:1"
       id="path7581"
       sodipodi:cx="85"
       sodipodi:cy="190"
       sodipodi:rx="5.5"
       sodipodi:ry="5.5"
       d="M 90.5 190 A 5.5 5.5 0 1 1  79.5,190 A 5.5 5.5 0 1 1  90.5 190 z"
       transform="matrix(0.999996,0,0,1,100.0003,14)" />
    <path
       sodipodi:nodetypes="ccccc"
       id="path7583"
       d="M 376.49999,186 C 386.49999,186 386.49999,206 376.49999,206 L 340.49999,206 C 330.49999,206 330.49999,186 340.49999,186 L 376.49999,186 z "
       style="fill:#0b268d;fill-opacity:1;fill-rule:evenodd;stroke:#000000;stroke-width:2px;stroke-linecap:butt;stroke-linejoin:miter;stroke-opacity:1" />
    <path
       transform="matrix(0.999996,0,0,1,230.0004,-1.999982)"
       d="M 90.5 190 A 5.5 5.5 0 1 1  79.5,190 A 5.5 5.5 0 1 1  90.5 190 z"
       sodipodi:ry="5.5"
       sodipodi:rx="5.5"
       sodipodi:cy="190"
       sodipodi:cx="85"
       id="path7585"
       style="fill:#fad330;fill-opacity:1;stroke:#000000;stroke-width:2;stroke-miterlimit:4;stroke-dasharray:none;stroke-opacity:1"
       sodipodi:type="arc" />
    <path
       sodipodi:type="arc"
       style="fill:#fad330;fill-opacity:1;stroke:#000000;stroke-width:2;stroke-miterlimit:4;stroke-dasharray:none;stroke-opacity:1"
       id="path7587"
       sodipodi:cx="85"
       sodipodi:cy="190"
       sodipodi:rx="5.5"
       sodipodi:ry="5.5"
       d="M 90.5 190 A 5.5 5.5 0 1 1  79.5,190 A 5.5 5.5 0 1 1  90.5 190 z"
       transform="matrix(0.999996,0,0,1,230.0003,14)" />
    <path
       sodipodi:type="arc"
       style="fill:#fad330;fill-opacity:1;stroke:#000000;stroke-width:2;stroke-miterlimit:4;stroke-dasharray:none;stroke-opacity:1"
       id="path7589"
       sodipodi:cx="85"
       sodipodi:cy="190"
       sodipodi:rx="5.5"
       sodipodi:ry="5.5"
       d="M 90.5 190 A 5.5 5.5 0 1 1  79.5,190 A 5.5 5.5 0 1 1  90.5 190 z"
       transform="matrix(0.999996,0,0,1,317.0003,-1.999981)" />
    <path
       transform="matrix(0.999996,0,0,1,317.0003,14)"
       d="M 90.5 190 A 5.5 5.5 0 1 1  79.5,190 A 5.5 5.5 0 1 1  90.5 190 z"
       sodipodi:ry="5.5"
       sodipodi:rx="5.5"
       sodipodi:cy="190"
       sodipodi:cx="85"
       id="path7591"
       style="fill:#fad330;fill-opacity:1;stroke:#000000;stroke-width:2;stroke-miterlimit:4;stroke-dasharray:none;stroke-opacity:1"
       sodipodi:type="arc" />
    <path
       sodipodi:type="arc"
       style="fill:#ffffff;fill-opacity:1;stroke:#000000;stroke-width:2;stroke-miterlimit:4;stroke-dasharray:none;stroke-opacity:1"
       id="path8466"
       sodipodi:cx="471.25"
       sodipodi:cy="97.5"
       sodipodi:rx="10.5"
       sodipodi:ry="15.5"
       d="M 481.75 97.5 A 10.5 15.5 0 1 1  460.75,97.5 A 10.5 15.5 0 1 1  481.75 97.5 z"
       transform="matrix(0.848597,0.348089,-0.303682,0.87693,99.70765,-146.5376)" />
    <path
       transform="matrix(-0.848597,0.348089,0.303682,0.87693,400.2923,-146.5376)"
       d="M 481.75 97.5 A 10.5 15.5 0 1 1  460.75,97.5 A 10.5 15.5 0 1 1  481.75 97.5 z"
       sodipodi:ry="15.5"
       sodipodi:rx="10.5"
       sodipodi:cy="97.5"
       sodipodi:cx="471.25"
       id="path9341"
       style="fill:#ffffff;fill-opacity:1;stroke:#000000;stroke-width:2;stroke-miterlimit:4;stroke-dasharray:none;stroke-opacity:1"
       sodipodi:type="arc" />
    <path
       sodipodi:type="arc"
       style="fill:#ffffff;fill-opacity:1;stroke:#000000;stroke-width:2.14666677;stroke-miterlimit:4;stroke-dasharray:none;stroke-opacity:1"
       id="path9355"
       sodipodi:cx="248.8"
       sodipodi:cy="96.400002"
       sodipodi:rx="15.6"
       sodipodi:ry="15.6"
       d="M 264.4 96.400002 A 15.6 15.6 0 1 1  233.2,96.400002 A 15.6 15.6 0 1 1  264.4 96.400002 z"
       transform="matrix(0.89964,0,0,0.89964,26.16954,13.27471)" />
    <path
       sodipodi:type="arc"
       style="fill:#ffffff;fill-opacity:1;stroke:#000000;stroke-width:2.0111115;stroke-miterlimit:4;stroke-dasharray:none;stroke-opacity:1"
       id="path10250"
       sodipodi:cx="142.2"
       sodipodi:cy="98"
       sodipodi:rx="17.6"
       sodipodi:ry="17.6"
       d="M 159.8 98 A 17.6 17.6 0 1 1  124.6,98 A 17.6 17.6 0 1 1  159.8 98 z"
       transform="matrix(0.913707,0,0,0.913706,10.07089,9.456803)" />
    <path
       transform="matrix(0.913707,0,0,0.913706,230.0709,9.456803)"
       d="M 159.8 98 A 17.6 17.6 0 1 1  124.6,98 A 17.6 17.6 0 1 1  159.8 98 z"
       sodipodi:ry="17.6"
       sodipodi:rx="17.6"
       sodipodi:cy="98"
       sodipodi:cx="142.2"
       id="path11125"
       style="fill:#ffffff;fill-opacity:1;stroke:#000000;stroke-width:2.0111115;stroke-miterlimit:4;stroke-dasharray:none;stroke-opacity:1"
       sodipodi:type="arc" />
    <path
       style="fill:#ffffff;fill-opacity:1;fill-rule:evenodd;stroke:#000000;stroke-width:1;stroke-linecap:butt;stroke-linejoin:miter;stroke-miterlimit:4;stroke-dasharray:none;stroke-opacity:1"
       d="M 250,258 C 270,258 255,310 250,340 C 245,310 230,258 250,258 z "
       id="path13916"
       sodipodi:nodetypes="ccc" />
    <path
       style="fill:#ffffff;fill-opacity:1;fill-rule:evenodd;stroke:#000000;stroke-width:1;stroke-linecap:butt;stroke-linejoin:miter;stroke-miterlimit:4;stroke-dasharray:none;stroke-opacity:1"
       d="M 250,359 C 255,375 265,403 250,403 C 235,403 245,375 250,359 z "
       id="path13918"
       sodipodi:nodetypes="ccc" />
    <path
       sodipodi:type="arc"
       style="fill:#ffffff;fill-opacity:1;stroke:#000000;stroke-width:1;stroke-miterlimit:4;stroke-dasharray:none;stroke-opacity:1"
       id="path15666"
       sodipodi:cx="250.83333"
       sodipodi:cy="349.16666"
       sodipodi:rx="13.166667"
       sodipodi:ry="13.333333"
       d="M 264 349.16666 A 13.166667 13.333333 0 1 1  237.66666,349.16666 A 13.166667 13.333333 0 1 1  264 349.16666 z"
       transform="matrix(0.914844,0,0,0.536235,20.52628,162.2646)" />
    <path
       sodipodi:nodetypes="ccccc"
       id="path20041"
       d="M 243.51538,314.91538 C 239.28069,300.96127 237.83934,287.03437 233.50662,279.86763 C 230.72593,275.6709 226.38257,272.29767 221.08517,272.49258 C 219.58717,276.98656 221.01607,281.58653 223.99076,286.62261 C 228.53981,293.61331 238.17755,302.69921 243.51538,314.91538 z "
       style="fill:#ffffff;fill-opacity:1;fill-rule:evenodd;stroke:#000000;stroke-width:0.96924376px;stroke-linecap:butt;stroke-linejoin:miter;stroke-opacity:1" />
    <path
       style="fill:#ffffff;fill-opacity:1;fill-rule:evenodd;stroke:#000000;stroke-width:0.97961164px;stroke-linecap:butt;stroke-linejoin:miter;stroke-opacity:1"
       d="M 207.48981,384.5102 C 212.56248,382.22663 213.21349,380.54482 217.28125,380.66829 C 221.67975,380.61734 224.47034,384.17696 229.2708,384.126 C 234.20446,384.17628 244.99817,377.81315 245.5102,357.48981 C 242.05226,369.08921 238.38437,373.90911 229.26966,374.53823 C 224.80454,374.44414 221.94733,372.34418 217.88419,372.0495 C 212.81151,372.39191 209.94967,376.74606 207.48981,384.5102 z "
       id="path20043"
       sodipodi:nodetypes="ccccccc" />
    <path
       style="fill:#ffffff;fill-opacity:1;fill-rule:evenodd;stroke:#000000;stroke-width:1px;stroke-linecap:butt;stroke-linejoin:miter;stroke-opacity:1"
       d="M 206,346 C 213,348 215,347 215,342 C 215,335 198,325 198,307 C 198,300 204,291 212,291 C 223,291 245,300 245,340 C 242,330 240,315 226,315 C 221,315 219,320 219,324 C 219,331 225,336 225,343 C 225,350 222,353 216,353 C 210,353 207,352 206,346 z "
       id="path20047"
       sodipodi:nodetypes="cccccccccc" />
    <path
       style="fill:#febd0d;fill-opacity:1;fill-rule:evenodd;stroke:#000000;stroke-width:1px;stroke-linecap:butt;stroke-linejoin:miter;stroke-opacity:1"
       d="M 308,612 L 278,520 L 250,570 L 222,520 L 192,612 C 197,615 204,618 204,625 C 204,655 135,660 170,680 C 164,690 152,693 142,688 C 118,702 98,698 90,671 C 114,680 117,657 131,647 C 143,638 180,634.5 179,629 C 179,625 163,632 151,632 C 140,632 136,622 140,612 L 195,470 L 180,470 C 175,430 160,403 147,403 C 133,403 133,414 135,427 C 123,424 116,414 118,401 C 100,395 100,370 115,357 C 127,390 175,365 190,430 L 310,430 C 325,365 373,390 385,357 C 400,370 400,395 382,401 C 384,414 377,424 365,427 C 368,414 368,403 353,403 C 340,403 325,430 320,470 L 305,470 L 360,612 M 308,612 C 303,615 296,618 296,625 C 296,655 365,660 330,680 C 336,690 348,693 358,688 C 382,702 402,698 410,671 C 386,680 383,657 369,647 C 357,638 320,634.5 321,629 C 321,625 337,632 349,632 C 360,632 364,622 360,612"
       id="path20109"
       sodipodi:nodetypes="cccccscccccscccsccccccccsccccscccccsc" />
    <path
       style="fill:#0b268d;fill-opacity:1;fill-rule:evenodd;stroke:#000000;stroke-width:1px;stroke-linecap:butt;stroke-linejoin:miter;stroke-opacity:1"
       d="M 250,515 L 222,470 L 278,470 L 250,515 z "
       id="path20105" />
    <path
       sodipodi:nodetypes="cccccccccc"
       id="path1521"
       d="M 294,346 C 287,348 285,347 285,342 C 285,335 302,325 302,307 C 302,300 296,291 288,291 C 277,291 255,300 255,340 C 258,330 260,315 274,315 C 279,315 281,320 281,324 C 281,331 275,336 275,343 C 275,350 278,353 284,353 C 290,353 293,352 294,346 z "
       style="fill:#ffffff;fill-opacity:1;fill-rule:evenodd;stroke:#000000;stroke-width:1px;stroke-linecap:butt;stroke-linejoin:miter;stroke-opacity:1" />
    <path
       style="fill:#ffffff;fill-opacity:1;fill-rule:evenodd;stroke:#000000;stroke-width:0.96924376px;stroke-linecap:butt;stroke-linejoin:miter;stroke-opacity:1"
       d="M 256.48462,314.91538 C 260.71931,300.96127 262.16066,287.03437 266.49338,279.86763 C 269.27407,275.6709 273.61743,272.29767 278.91483,272.49258 C 280.41283,276.98656 278.98393,281.58653 276.00924,286.62261 C 271.46019,293.61331 261.82245,302.69921 256.48462,314.91538 z "
       id="path1523"
       sodipodi:nodetypes="ccccc" />
    <path
       sodipodi:nodetypes="ccccccc"
       id="path1525"
       d="M 292.5102,384.51019 C 287.43753,382.22662 286.78652,380.54481 282.71876,380.66828 C 278.32026,380.61733 275.52967,384.17695 270.72921,384.12599 C 265.79555,384.17627 255.00184,377.81314 254.48981,357.4898 C 257.94775,369.0892 261.61564,373.9091 270.73035,374.53822 C 275.19547,374.44413 278.05268,372.34417 282.11582,372.04949 C 287.1885,372.3919 290.05034,376.74605 292.5102,384.51019 z "
       style="fill:#ffffff;fill-opacity:1;fill-rule:evenodd;stroke:#000000;stroke-width:0.97961164px;stroke-linecap:butt;stroke-linejoin:miter;stroke-opacity:1" />
    <path
       style="fill:#ffffff;fill-opacity:1;fill-rule:evenodd;stroke:#000000;stroke-width:1;stroke-linecap:butt;stroke-linejoin:miter;stroke-miterlimit:4;stroke-dasharray:none;stroke-opacity:1"
       d="M 94.5,462.5 C 114.5,462.5 99.5,514.5 94.5,544.5 C 89.5,514.5 74.5,462.5 94.5,462.5 z "
       id="path1541"
       sodipodi:nodetypes="ccc" />
    <path
       style="fill:#ffffff;fill-opacity:1;fill-rule:evenodd;stroke:#000000;stroke-width:1;stroke-linecap:butt;stroke-linejoin:miter;stroke-miterlimit:4;stroke-dasharray:none;stroke-opacity:1"
       d="M 94.5,563.5 C 99.5,579.5 109.5,607.5 94.5,607.5 C 79.5,607.5 89.5,579.5 94.5,563.5 z "
       id="path1543"
       sodipodi:nodetypes="ccc" />
    <path
       sodipodi:type="arc"
       style="fill:#ffffff;fill-opacity:1;stroke:#000000;stroke-width:1;stroke-miterlimit:4;stroke-dasharray:none;stroke-opacity:1"
       id="path1545"
       sodipodi:cx="250.83333"
       sodipodi:cy="349.16666"
       sodipodi:rx="13.166667"
       sodipodi:ry="13.333333"
       d="M 264 349.16666 A 13.166667 13.333333 0 1 1  237.66666,349.16666 A 13.166667 13.333333 0 1 1  264 349.16666 z"
       transform="matrix(0.914844,0,0,0.536235,-134.9737,366.7646)" />
    <path
       sodipodi:nodetypes="ccccc"
       id="path1547"
       d="M 88.01538,519.41538 C 83.78069,505.46127 82.33934,491.53437 78.00662,484.36763 C 75.22593,480.1709 70.88257,476.79767 65.58517,476.99258 C 64.08717,481.48656 65.51607,486.08653 68.49076,491.12261 C 73.03981,498.11331 82.67755,507.19921 88.01538,519.41538 z "
       style="fill:#ffffff;fill-opacity:1;fill-rule:evenodd;stroke:#000000;stroke-width:0.96924376px;stroke-linecap:butt;stroke-linejoin:miter;stroke-opacity:1" />
    <path
       style="fill:#ffffff;fill-opacity:1;fill-rule:evenodd;stroke:#000000;stroke-width:0.97961164px;stroke-linecap:butt;stroke-linejoin:miter;stroke-opacity:1"
       d="M 51.98981,589.0102 C 57.06248,586.72663 57.71349,585.04482 61.78125,585.16829 C 66.17975,585.11734 68.97034,588.67696 73.7708,588.626 C 78.70446,588.67628 89.49817,582.31315 90.0102,561.98981 C 86.55226,573.58921 82.88437,578.40911 73.76966,579.03823 C 69.30454,578.94414 66.44733,576.84418 62.38419,576.5495 C 57.31151,576.89191 54.44967,581.24606 51.98981,589.0102 z "
       id="path1549"
       sodipodi:nodetypes="ccccccc" />
    <path
       style="fill:#ffffff;fill-opacity:1;fill-rule:evenodd;stroke:#000000;stroke-width:1px;stroke-linecap:butt;stroke-linejoin:miter;stroke-opacity:1"
       d="M 50.5,550.5 C 57.5,552.5 59.5,551.5 59.5,546.5 C 59.5,539.5 42.5,529.5 42.5,511.5 C 42.5,504.5 48.5,495.5 56.5,495.5 C 67.5,495.5 89.5,504.5 89.5,544.5 C 86.5,534.5 84.5,519.5 70.5,519.5 C 65.5,519.5 63.5,524.5 63.5,528.5 C 63.5,535.5 69.5,540.5 69.5,547.5 C 69.5,554.5 66.5,557.5 60.5,557.5 C 54.5,557.5 51.5,556.5 50.5,550.5 z "
       id="path1551"
       sodipodi:nodetypes="cccccccccc" />
    <path
       sodipodi:nodetypes="cccccccccc"
       id="path1553"
       d="M 138.5,550.5 C 131.5,552.5 129.5,551.5 129.5,546.5 C 129.5,539.5 146.5,529.5 146.5,511.5 C 146.5,504.5 140.5,495.5 132.5,495.5 C 121.5,495.5 99.5,504.5 99.5,544.5 C 102.5,534.5 104.5,519.5 118.5,519.5 C 123.5,519.5 125.5,524.5 125.5,528.5 C 125.5,535.5 119.5,540.5 119.5,547.5 C 119.5,554.5 122.5,557.5 128.5,557.5 C 134.5,557.5 137.5,556.5 138.5,550.5 z "
       style="fill:#ffffff;fill-opacity:1;fill-rule:evenodd;stroke:#000000;stroke-width:1px;stroke-linecap:butt;stroke-linejoin:miter;stroke-opacity:1" />
    <path
       style="fill:#ffffff;fill-opacity:1;fill-rule:evenodd;stroke:#000000;stroke-width:0.96924376px;stroke-linecap:butt;stroke-linejoin:miter;stroke-opacity:1"
       d="M 100.98462,519.41538 C 105.21931,505.46127 106.66066,491.53437 110.99338,484.36763 C 113.77407,480.1709 118.11743,476.79767 123.41483,476.99258 C 124.91283,481.48656 123.48393,486.08653 120.50924,491.12261 C 115.96019,498.11331 106.32245,507.19921 100.98462,519.41538 z "
       id="path1555"
       sodipodi:nodetypes="ccccc" />
    <path
       sodipodi:nodetypes="ccccccc"
       id="path1557"
       d="M 137.0102,589.01019 C 131.93753,586.72662 131.28652,585.04481 127.21876,585.16828 C 122.82026,585.11733 120.02967,588.67695 115.22921,588.62599 C 110.29555,588.67627 99.50184,582.31314 98.98981,561.9898 C 102.44775,573.5892 106.11564,578.4091 115.23035,579.03822 C 119.69547,578.94413 122.55268,576.84417 126.61582,576.54949 C 131.6885,576.8919 134.55034,581.24605 137.0102,589.01019 z "
       style="fill:#ffffff;fill-opacity:1;fill-rule:evenodd;stroke:#000000;stroke-width:0.97961164px;stroke-linecap:butt;stroke-linejoin:miter;stroke-opacity:1" />
    <path
       style="fill:#ffffff;fill-opacity:1;fill-rule:evenodd;stroke:#000000;stroke-width:1;stroke-linecap:butt;stroke-linejoin:miter;stroke-miterlimit:4;stroke-dasharray:none;stroke-opacity:1"
       d="M 250,636 C 270,636 255,688 250,718 C 245,688 230,636 250,636 z "
       id="path1559"
       sodipodi:nodetypes="ccc" />
    <path
       style="fill:#ffffff;fill-opacity:1;fill-rule:evenodd;stroke:#000000;stroke-width:1;stroke-linecap:butt;stroke-linejoin:miter;stroke-miterlimit:4;stroke-dasharray:none;stroke-opacity:1"
       d="M 250,737 C 255,753 265,781 250,781 C 235,781 245,753 250,737 z "
       id="path1561"
       sodipodi:nodetypes="ccc" />
    <path
       sodipodi:type="arc"
       style="fill:#ffffff;fill-opacity:1;stroke:#000000;stroke-width:1;stroke-miterlimit:4;stroke-dasharray:none;stroke-opacity:1"
       id="path1563"
       sodipodi:cx="250.83333"
       sodipodi:cy="349.16666"
       sodipodi:rx="13.166667"
       sodipodi:ry="13.333333"
       d="M 264 349.16666 A 13.166667 13.333333 0 1 1  237.66666,349.16666 A 13.166667 13.333333 0 1 1  264 349.16666 z"
       transform="matrix(0.914844,0,0,0.536235,20.52628,540.2646)" />
    <path
       sodipodi:nodetypes="ccccc"
       id="path1565"
       d="M 243.51538,692.91538 C 239.28069,678.96127 237.83934,665.03437 233.50662,657.86763 C 230.72593,653.6709 226.38257,650.29767 221.08517,650.49258 C 219.58717,654.98656 221.01607,659.58653 223.99076,664.62261 C 228.53981,671.61331 238.17755,680.69921 243.51538,692.91538 z "
       style="fill:#ffffff;fill-opacity:1;fill-rule:evenodd;stroke:#000000;stroke-width:0.96924376px;stroke-linecap:butt;stroke-linejoin:miter;stroke-opacity:1" />
    <path
       style="fill:#ffffff;fill-opacity:1;fill-rule:evenodd;stroke:#000000;stroke-width:0.97961164px;stroke-linecap:butt;stroke-linejoin:miter;stroke-opacity:1"
       d="M 207.48981,762.5102 C 212.56248,760.22663 213.21349,758.54482 217.28125,758.66829 C 221.67975,758.61734 224.47034,762.17696 229.2708,762.126 C 234.20446,762.17628 244.99817,755.81315 245.5102,735.48981 C 242.05226,747.08921 238.38437,751.90911 229.26966,752.53823 C 224.80454,752.44414 221.94733,750.34418 217.88419,750.0495 C 212.81151,750.39191 209.94967,754.74606 207.48981,762.5102 z "
       id="path1567"
       sodipodi:nodetypes="ccccccc" />
    <path
       style="fill:#ffffff;fill-opacity:1;fill-rule:evenodd;stroke:#000000;stroke-width:1px;stroke-linecap:butt;stroke-linejoin:miter;stroke-opacity:1"
       d="M 206,724 C 213,726 215,725 215,720 C 215,713 198,703 198,685 C 198,678 204,669 212,669 C 223,669 245,678 245,718 C 242,708 240,693 226,693 C 221,693 219,698 219,702 C 219,709 225,714 225,721 C 225,728 222,731 216,731 C 210,731 207,730 206,724 z "
       id="path1569"
       sodipodi:nodetypes="cccccccccc" />
    <path
       sodipodi:nodetypes="cccccccccc"
       id="path1571"
       d="M 294,724 C 287,726 285,725 285,720 C 285,713 302,703 302,685 C 302,678 296,669 288,669 C 277,669 255,678 255,718 C 258,708 260,693 274,693 C 279,693 281,698 281,702 C 281,709 275,714 275,721 C 275,728 278,731 284,731 C 290,731 293,730 294,724 z "
       style="fill:#ffffff;fill-opacity:1;fill-rule:evenodd;stroke:#000000;stroke-width:1px;stroke-linecap:butt;stroke-linejoin:miter;stroke-opacity:1" />
    <path
       style="fill:#ffffff;fill-opacity:1;fill-rule:evenodd;stroke:#000000;stroke-width:0.96924376px;stroke-linecap:butt;stroke-linejoin:miter;stroke-opacity:1"
       d="M 256.48462,692.91538 C 260.71931,678.96127 262.16066,665.03437 266.49338,657.86763 C 269.27407,653.6709 273.61743,650.29767 278.91483,650.49258 C 280.41283,654.98656 278.98393,659.58653 276.00924,664.62261 C 271.46019,671.61331 261.82245,680.69921 256.48462,692.91538 z "
       id="path1573"
       sodipodi:nodetypes="ccccc" />
    <path
       sodipodi:nodetypes="ccccccc"
       id="path1575"
       d="M 292.5102,762.51019 C 287.43753,760.22662 286.78652,758.54481 282.71876,758.66828 C 278.32026,758.61733 275.52967,762.17695 270.72921,762.12599 C 265.79555,762.17627 255.00184,755.81314 254.48981,735.4898 C 257.94775,747.0892 261.61564,751.9091 270.73035,752.53822 C 275.19547,752.44413 278.05268,750.34417 282.11582,750.04949 C 287.1885,750.3919 290.05034,754.74605 292.5102,762.51019 z "
       style="fill:#ffffff;fill-opacity:1;fill-rule:evenodd;stroke:#000000;stroke-width:0.97961164px;stroke-linecap:butt;stroke-linejoin:miter;stroke-opacity:1" />
    <path
       style="fill:#ffffff;fill-opacity:1;fill-rule:evenodd;stroke:#000000;stroke-width:1;stroke-linecap:butt;stroke-linejoin:miter;stroke-miterlimit:4;stroke-dasharray:none;stroke-opacity:1"
       d="M 405.5,462.5 C 425.5,462.5 410.5,514.5 405.5,544.5 C 400.5,514.5 385.5,462.5 405.5,462.5 z "
       id="path1577"
       sodipodi:nodetypes="ccc" />
    <path
       style="fill:#ffffff;fill-opacity:1;fill-rule:evenodd;stroke:#000000;stroke-width:1;stroke-linecap:butt;stroke-linejoin:miter;stroke-miterlimit:4;stroke-dasharray:none;stroke-opacity:1"
       d="M 405.5,563.5 C 410.5,579.5 420.5,607.5 405.5,607.5 C 390.5,607.5 400.5,579.5 405.5,563.5 z "
       id="path1579"
       sodipodi:nodetypes="ccc" />
    <path
       sodipodi:type="arc"
       style="fill:#ffffff;fill-opacity:1;stroke:#000000;stroke-width:1;stroke-miterlimit:4;stroke-dasharray:none;stroke-opacity:1"
       id="path1581"
       sodipodi:cx="250.83333"
       sodipodi:cy="349.16666"
       sodipodi:rx="13.166667"
       sodipodi:ry="13.333333"
       d="M 264 349.16666 A 13.166667 13.333333 0 1 1  237.66666,349.16666 A 13.166667 13.333333 0 1 1  264 349.16666 z"
       transform="matrix(0.914844,0,0,0.536235,176.0263,366.7646)" />
    <path
       sodipodi:nodetypes="ccccc"
       id="path1583"
       d="M 399.01538,519.41538 C 394.78069,505.46127 393.33934,491.53437 389.00662,484.36763 C 386.22593,480.1709 381.88257,476.79767 376.58517,476.99258 C 375.08717,481.48656 376.51607,486.08653 379.49076,491.12261 C 384.03981,498.11331 393.67755,507.19921 399.01538,519.41538 z "
       style="fill:#ffffff;fill-opacity:1;fill-rule:evenodd;stroke:#000000;stroke-width:0.96924376px;stroke-linecap:butt;stroke-linejoin:miter;stroke-opacity:1" />
    <path
       style="fill:#ffffff;fill-opacity:1;fill-rule:evenodd;stroke:#000000;stroke-width:0.97961164px;stroke-linecap:butt;stroke-linejoin:miter;stroke-opacity:1"
       d="M 362.98981,589.0102 C 368.06248,586.72663 368.71349,585.04482 372.78125,585.16829 C 377.17975,585.11734 379.97034,588.67696 384.7708,588.626 C 389.70446,588.67628 400.49817,582.31315 401.0102,561.98981 C 397.55226,573.58921 393.88437,578.40911 384.76966,579.03823 C 380.30454,578.94414 377.44733,576.84418 373.38419,576.5495 C 368.31151,576.89191 365.44967,581.24606 362.98981,589.0102 z "
       id="path1585"
       sodipodi:nodetypes="ccccccc" />
    <path
       style="fill:#ffffff;fill-opacity:1;fill-rule:evenodd;stroke:#000000;stroke-width:1px;stroke-linecap:butt;stroke-linejoin:miter;stroke-opacity:1"
       d="M 361.5,550.5 C 368.5,552.5 370.5,551.5 370.5,546.5 C 370.5,539.5 353.5,529.5 353.5,511.5 C 353.5,504.5 359.5,495.5 367.5,495.5 C 378.5,495.5 400.5,504.5 400.5,544.5 C 397.5,534.5 395.5,519.5 381.5,519.5 C 376.5,519.5 374.5,524.5 374.5,528.5 C 374.5,535.5 380.5,540.5 380.5,547.5 C 380.5,554.5 377.5,557.5 371.5,557.5 C 365.5,557.5 362.5,556.5 361.5,550.5 z "
       id="path1587"
       sodipodi:nodetypes="cccccccccc" />
    <path
       sodipodi:nodetypes="cccccccccc"
       id="path1589"
       d="M 449.5,550.5 C 442.5,552.5 440.5,551.5 440.5,546.5 C 440.5,539.5 457.5,529.5 457.5,511.5 C 457.5,504.5 451.5,495.5 443.5,495.5 C 432.5,495.5 410.5,504.5 410.5,544.5 C 413.5,534.5 415.5,519.5 429.5,519.5 C 434.5,519.5 436.5,524.5 436.5,528.5 C 436.5,535.5 430.5,540.5 430.5,547.5 C 430.5,554.5 433.5,557.5 439.5,557.5 C 445.5,557.5 448.5,556.5 449.5,550.5 z "
       style="fill:#ffffff;fill-opacity:1;fill-rule:evenodd;stroke:#000000;stroke-width:1px;stroke-linecap:butt;stroke-linejoin:miter;stroke-opacity:1" />
    <path
       style="fill:#ffffff;fill-opacity:1;fill-rule:evenodd;stroke:#000000;stroke-width:0.96924376px;stroke-linecap:butt;stroke-linejoin:miter;stroke-opacity:1"
       d="M 411.98462,519.41538 C 416.21931,505.46127 417.66066,491.53437 421.99338,484.36763 C 424.77407,480.1709 429.11743,476.79767 434.41483,476.99258 C 435.91283,481.48656 434.48393,486.08653 431.50924,491.12261 C 426.96019,498.11331 417.32245,507.19921 411.98462,519.41538 z "
       id="path1591"
       sodipodi:nodetypes="ccccc" />
    <path
       sodipodi:nodetypes="ccccccc"
       id="path1593"
       d="M 448.0102,589.01019 C 442.93753,586.72662 442.28652,585.04481 438.21876,585.16828 C 433.82026,585.11733 431.02967,588.67695 426.22921,588.62599 C 421.29555,588.67627 410.50184,582.31314 409.98981,561.9898 C 413.44775,573.5892 417.11564,578.4091 426.23035,579.03822 C 430.69547,578.94413 433.55268,576.84417 437.61582,576.54949 C 442.6885,576.8919 445.55034,581.24605 448.0102,589.01019 z "
       style="fill:#ffffff;fill-opacity:1;fill-rule:evenodd;stroke:#000000;stroke-width:0.97961164px;stroke-linecap:butt;stroke-linejoin:miter;stroke-opacity:1" />
    <path
       style="fill:none;fill-opacity:0.75;fill-rule:evenodd;stroke:#000000;stroke-width:2px;stroke-linecap:butt;stroke-linejoin:miter;stroke-opacity:1"
       d="M 250,84 L 250,46"
       id="path1609" />
    <path
       style="fill:none;fill-opacity:0.75;fill-rule:evenodd;stroke:#000000;stroke-width:2px;stroke-linecap:butt;stroke-linejoin:miter;stroke-opacity:1"
       d="M 266,100 L 304,100"
       id="path1611" />
    <path
       style="fill:none;fill-opacity:0.75;fill-rule:evenodd;stroke:#000000;stroke-width:2px;stroke-linecap:butt;stroke-linejoin:miter;stroke-opacity:1"
       d="M 196,100 L 234,100"
       id="path1613" />
    <path
       id="path1619"
       d="M 421,100 L 459,100"
       style="fill:none;fill-opacity:0.75;fill-rule:evenodd;stroke:#000000;stroke-width:2px;stroke-linecap:butt;stroke-linejoin:miter;stroke-opacity:1" />
    <path
       style="fill:none;fill-opacity:0.75;fill-rule:evenodd;stroke:#000000;stroke-width:2px;stroke-linecap:butt;stroke-linejoin:miter;stroke-opacity:1"
       d="M 41,100 L 79,100"
       id="path1621" />
  </g>
</svg>
