<svg version="1.1" id="svg4073" xmlns="http://www.w3.org/2000/svg" x="0" y="0" viewBox="0 0 300 300" xml:space="preserve"><style>.st0{fill:#fff}</style><path class="st0" d="M219.4 119.2c-14.5 0-19 10.2-19 21.7h36.8c.1-12.1-4.3-21.7-17.8-21.7z"/><path class="st0" d="M286.5.5h-273C6.3.5.5 6.3.5 13.5v273.1c0 7.2 5.8 13 13 13h273.1c7.2 0 13-5.8 13-13V13.5c-.1-7.2-5.9-13-13.1-13zM121.2 125.4l-21.4 86.7c-1 2.5-4.7 17.4-27.6 17.4-13.5 0-22.6-1.1-22.6-7.2v-5c0-5.1 3.6-5.2 5.4-5.2 4.9 0 9.1 1.2 15.6 1.2 13.7 0 14-6.9 17.4-22.4h-6.3c-15.8 0-16.9-12.8-19.3-21.1L49 121.7s-1.2-4.4-1.2-7.3c0-5.3 3.7-6.4 7.1-6.4h4c4.8 0 5.8 1.5 8.2 9.8l12.8 49.1c1.7 5.8.9 8.6 11.1 8.6l14.2-61.6c.8-3.4 2.6-5.9 7-5.9h5c4 0 6.1 2.3 6.1 6.3-.1 3.1-2.1 11.1-2.1 11.1zm40.5 59.4c0 2.7-.6 6.9-6.9 6.9h-4.2c-4.1 0-6.7-1.6-6.7-6.8V81.7h-4c-4 0-7.6-1.6-7.6-5.6v-6.3c0-3.1 2.4-5.3 6.6-5.3h14.7c7.9 0 8.1 7.8 8.1 13.7v106.6zm91.8-39.8c0 8.2-6.1 10.4-11.5 10.4h-41.9c0 19.6 7.1 21.7 24.6 21.7 11.7 0 16.2-2.2 20.4-2.2 3 0 4.9 2.3 4.9 5.1v5.1c0 4.3-9.1 7.7-23.5 7.7H217c-20.1 0-35-9.2-35-38.3v-7.2c0-32.3 15.9-41.7 37.1-41.7 22.6 0 34.3 12.4 34.3 35.5v3.9z"/></svg>